# AST/ASF file generated using VICON BodyLanguage
# -----------------------------------------------
:version 1.10
:name VICON
:units
  mass 1.0
  length 0.45
  angle deg
:documentation
   .ast/.asf automatically generated from VICON data using
   VICON BodyBuilder and BodyLanguage model FoxedUp or BRILLIANT.MOD
:root
   order TX TY TZ RX RY RZ
   axis XYZ
   position 0 0 0  
   orientation 0 0 0 
:bonedata
  begin
     id 1 
     name lhipjoint
     direction 0.521452 -0.77106 0.36545 
     length 2.0933 
     axis 0 0 0  XYZ
  end
  begin
     id 2 
     name lfemur
     direction 0.34202 -0.939693 0  
     length 6.83441  
     axis 0 0 20  XYZ
    dof rx ry rz
    limits (-160.0 20.0)
           (-70.0 70.0)
           (-60.0 70.0)
  end
  begin
     id 3 
     name ltibia
     direction 0.34202 -0.939693 0   
     length 7.28749   
     axis 0 0 20   XYZ
    dof rx
    limits (-10.0 170.0)
  end
  begin
     id 4 
     name lfoot
     direction 0.100608 -0.276418 0.955757   
     length 1.52195   
     axis -90 7.62852e-016 20   XYZ
    dof rx rz
    limits (-45.0 90.0)
           (-70.0 20.0)
  end
  begin
     id 5 
     name ltoes
     direction 1.53558e-011 -4.21907e-011 1   
     length 0.770459   
     axis -90 7.62852e-016 20   XYZ
    dof rx
    limits (-90.0 20.0)
  end
  begin
     id 6 
     name rhipjoint
     direction -0.488071 -0.788702 0.373812   
     length 2.04648  
     axis 0 0 0  XYZ 
  end
  begin
     id 7 
     name rfemur
     direction -0.34202 -0.939693 0   
     length 6.92583   
     axis 0 0 -20   XYZ
    dof rx ry rz
    limits (-160.0 20.0)
           (-70.0 70.0)
           (-70.0 60.0)
  end
  begin
     id 8 
     name rtibia
     direction -0.34202 -0.939693 0   
     length 7.41043   
     axis 0 0 -20   XYZ
    dof rx
    limits (-10.0 170.0)
 end
 begin
     id 9 
     name rfoot
     direction -0.0784433 -0.215521 0.973343   
     length 1.67708  
     axis -90 -7.62852e-016 -20   XYZ
    dof rx rz
    limits (-45.0 90.0)
           (-20.0 70.0)
  end
  begin
     id 10 
     name rtoes
     direction -1.53551e-011 -4.21842e-011 1   
     length 0.849787   
     axis -90 -7.62852e-016 -20   XYZ
    dof rx
    limits (-90.0 20.0)
  end
  begin
     id 11 
     name lowerback
     direction -0.0122332 0.997575 -0.0685192   
     length 1.98724   
     axis 0 0 0   XYZ
    dof rx ry rz
    limits (-20.0 45.0)
           (-30.0 30.0)
           (-30.0 30.0)
  end
  begin
     id 12 
     name upperback
     direction 0.0182347 0.999724 -0.0148421   
     length 1.99029   
     axis 0 0 0   XYZ
    dof rx ry rz
    limits (-20.0 45.0)
           (-30.0 30.0)
           (-30.0 30.0)
  end
  begin
     id 13 
     name thorax
     direction 0.0242908 0.99956 0.0170184   
     length 1.99573   
     axis 0 0 0   XYZ
    dof rx ry rz
    limits (-20.0 45.0)
           (-30.0 30.0)
           (-30.0 30.0)
  end
  begin
     id 14 
     name lowerneck
     direction 0.0654488 0.985533 0.156338   
     length 1.4285   
     axis 0 0 0   XYZ
    dof rx ry rz
    limits (-20.0 45.0)
           (-30.0 30.0)
           (-30.0 30.0)
  end
  begin
     id 15 
     name upperneck
     direction -0.02953 0.998556 -0.0448842   
     length 1.44709   
     axis 0 0 0   XYZ
    dof rx ry rz
    limits (-20.0 45.0)
           (-30.0 30.0)
           (-30.0 30.0)
  end
  begin
     id 16
     name head
     direction -0.0155588 0.999386 -0.0314063  
     length 1.44689  
     axis 0 0 0   XYZ
    dof rx ry rz
    limits (-20.0 45.0)
           (-30.0 30.0)
           (-30.0 30.0)
  end
  begin
     id 17 
     name lclavicle
     direction 0.968229 0.236071 -0.0824755  
     length 3.60593  
     axis 0 0 0   XYZ
    dof ry rz
    limits (-20.0 10.0)
           (0.0 20.0)
  end
  begin
     id 18 
     name lhumerus
     direction 1 -4.48968e-011 7.8138e-029   
     length 5.06035   
     axis 180 -30 -90   XYZ
    dof rx ry rz
    limits (-60.0 90.0)
           (-90.0 90.0)
           (-90.0 90.0)
  end
  begin
     id 19
     name lradius
     direction 1 -4.48967e-011 9.02887e-028   
     length 3.1478   
     axis 180 -30 -90   XYZ
    dof rx
    limits (-10.0 170.0)
  end
  begin
     id 20
     name lwrist
     direction 1 -4.48961e-011 7.20928e-028   
     length 1.5739   
     axis -5.52449e-016 90 90   XYZ
    dof ry
    limits (-180.0 0.0)
 end
  begin
     id 21 
     name lhand
     direction 1 -4.48972e-011 1.44186e-027   
     length 0.606747   
     axis -9.20027e-016 90 90   XYZ
    dof rx rz
    limits (-90.0 90.0)
           (-45.0 45.0)
  end
  begin
     id 22 
     name lfingers
     direction 1 -4.48943e-011 2.88371e-027   
     length 0.489175   
     axis -1.84005e-015 90 90   XYZ
    dof rx
    limits (0.0 90.0)
  end
  begin
     id 23
     name lthumb
     direction 0.707107 -6.34917e-011 0.707107   
     length 0.70236   
     axis -90 45 2.85299e-015   XYZ
    dof rx rz
    limits (-45.0 45.0)
           (-45.0 45.0)
  end
  begin
     id 24 
     name rclavicle
     direction -0.978165 0.207816 0.0022268   
     length 3.35425  
     axis 0 0 0   XYZ 
    dof ry rz
    limits (-10.0 20.0)
           (-20.0 0.0)
  end
  begin
     id 25 
     name rhumerus
     direction -1 -4.48964e-011 -4.02159e-027  
     length 5.12273   
     axis 180 30 90   XYZ
    dof rx ry rz
    limits (-90.0 60.0)
           (-90.0 90.0)
           (-90.0 90.0)
  end
  begin
     id 26 
     name rradius
     direction -1 -4.48966e-011 1.62746e-027   
     length 3.422   
     axis 180 30 90   XYZ
    dof rx
    limits (-10.0 170.0)
  end
  begin
     id 27 
     name rwrist
     direction -1 -4.4896e-011 7.20928e-028   
     length 1.711   
     axis -5.52449e-016 -90 -90   XYZ
    dof ry
    limits (-180.0 0.0)
  end
  begin
     id 28
     name rhand
     direction -1 -4.48979e-011 1.44186e-027   
     length 0.704599   
     axis -9.20027e-016 -90 -90   XYZ
    dof rx rz
    limits (-90.0 90.0)
           (-45.0 45.0)
  end
  begin
     id 29
     name rfingers
     direction -1 -4.48962e-011 2.88371e-027   
     length 0.568066   
     axis -1.84005e-015 -90 -90   XYZ
    dof rx
    limits (0.0 90.0)
  end
  begin
     id 30
     name rthumb
     direction -0.707107 -6.34949e-011 0.707107   
     length 0.815633   
     axis -90 -45 -2.85299e-015   XYZ
    dof rx rz
    limits (-45.0 45.0)
           (-45.0 45.0)
  end
:hierarchy
  begin
    root lhipjoint rhipjoint lowerback
    lhipjoint lfemur
    lfemur ltibia
    ltibia lfoot
    lfoot ltoes
    rhipjoint rfemur
    rfemur rtibia
    rtibia rfoot
    rfoot rtoes
    lowerback upperback
    upperback thorax
    thorax lowerneck lclavicle rclavicle
    lowerneck upperneck
    upperneck head
    lclavicle lhumerus
    lhumerus lradius
    lradius lwrist
    lwrist lhand lthumb
    lhand lfingers
    rclavicle rhumerus
    rhumerus rradius
    rradius rwrist
    rwrist rhand rthumb
    rhand rfingers
  end

#!OML:ASF E:\id_vita\Project 1\Capture day 1\Session 1\Male1.ASF
:FULLY-SPECIFIED
:DEGREES
381
root 1.78094 15.8244 1.3408 218.014 -84.4433 -213.259
lowerback -1.31883 -6.38228 -4.45237
upperback 0.411029 -8.43325 -0.363962
thorax 1.74006 -4.25593 1.80665
lowerneck -3.14751 -7.39609 -6.0485
upperneck -14.4163 -10.4263 2.18859
head -3.73525 -5.20514 1.97041
rclavicle -8.89934e-014 7.15625e-015
rhumerus -39.0417 -27.0185 -66.1212
rradius 13.5151
rwrist 25.3062
rhand -19.5099 35.4975
rfingers 7.12502
rthumb 6.81299 5.62715
lclavicle -8.89934e-014 7.15625e-015
lhumerus -17.2526 7.79653 82.8476
lradius 35.0337
lwrist 4.1395
lhand -14.9949 43.9372
lfingers 7.12502
lthumb 11.1696 73.6199
rfemur -31.9085 -2.16506 22.4997
rtibia 36.9179
rfoot -10.097 -2.52674
rtoes -5.18912
lfemur 5.84098 0.959339 -26.6324
ltibia 35.0541
lfoot 0.0205934 -12.6458
ltoes 48.2562
382
root 1.62558 15.8372 1.32179 215.405 -84.7476 -210.839
lowerback -0.880524 -6.33227 -4.09355
upperback 0.190403 -8.39912 -0.238727
thorax 1.23368 -4.22496 1.8143
lowerneck -3.17313 -7.52865 -6.1963
upperneck -13.8958 -10.5854 1.93394
head -3.54545 -5.26579 1.88704
rclavicle -1.97294e-014 5.96354e-016
rhumerus -39.0718 -25.9446 -66.6297
rradius 13.833
rwrist 23.9507
rhand -19.5723 35.7671
rfingers 7.12502
rthumb 6.75271 5.89479
lclavicle -1.97294e-014 5.96354e-016
lhumerus -18.1007 8.25531 82.8179
lradius 34.2279
lwrist 3.84472
lhand -14.2898 44.34
lfingers 7.12502
lthumb 11.8497 73.9847
rfemur -31.1831 -2.14217 22.8894
rtibia 37.2902
rfoot -10.8399 -2.72497
rtoes -4.19412
lfemur 4.96513 0.634262 -26.0503
ltibia 37.2655
lfoot 2.35636 -12.7379
ltoes 48.9001
383
root 1.47003 15.8509 1.30439 214.838 -85.0479 -210.427
lowerback -0.842376 -6.36836 -3.86369
upperback 0.332317 -8.44817 -0.221418
thorax 1.33125 -4.25124 1.70148
lowerneck -2.35081 -7.52957 -6.65541
upperneck -15.1907 -10.6627 2.62011
head -4.09969 -5.29809 2.29576
rclavicle 1.20799e-013 -9.93923e-015
rhumerus -38.3617 -24.2665 -68.2001
rradius 14.5515
rwrist 21.6732
rhand -19.5734 35.5964
rfingers 7.12502
rthumb 6.75166 5.72408
lclavicle 1.20799e-013 -9.93923e-015
lhumerus -18.2437 8.69072 82.6675
lradius 33.2629
lwrist 3.57997
lhand -13.9919 44.6984
lfingers 7.12502
lthumb 12.1369 74.3263
rfemur -30.4732 -2.12777 23.0607
rtibia 37.5971
rfoot -11.5494 -3.06333
rtoes -3.35555
lfemur 4.01331 0.176893 -25.6761
ltibia 39.5451
lfoot 4.74381 -12.8754
ltoes 49.6749
384
root 1.3174 15.8565 1.28791 215.685 -85.2093 -211.348
lowerback -0.840124 -6.43475 -3.85446
upperback 0.388944 -8.53569 -0.214817
thorax 1.39324 -4.29657 1.69558
lowerneck -4.37842 -7.74441 -5.73598
upperneck -13.2199 -10.85 1.29775
head -3.14063 -5.41829 1.51347
rclavicle 2.57923e-014 1.15295e-014
rhumerus -37.831 -22.9879 -69.3586
rradius 15.1682
rwrist 20.0837
rhand -19.4957 35.3787
rfingers 7.12502
rthumb 6.82668 5.50876
lclavicle 2.57923e-014 1.15295e-014
lhumerus -18.4044 9.13456 82.4538
lradius 32.137
lwrist 3.42804
lhand -14.0484 44.7932
lfingers 7.12502
lthumb 12.0824 74.4244
rfemur -29.8531 -1.90756 22.9972
rtibia 37.8197
rfoot -12.1214 -3.35641
rtoes -2.34481
lfemur 2.99658 -0.1614 -25.4833
ltibia 41.8734
lfoot 7.2981 -13.1719
ltoes 51.1608
385
root 1.17009 15.8625 1.27304 214.146 -85.4708 -209.87
lowerback -0.802023 -6.47665 -3.6389
upperback 0.429841 -8.59493 -0.143765
thorax 1.39703 -4.32516 1.65179
lowerneck -3.60166 -7.65008 -6.09906
upperneck -14.0558 -10.7433 1.99862
head -3.51883 -5.35989 1.8758
rclavicle 5.17958e-014 1.49089e-014
rhumerus -37.2589 -21.0818 -70.818
rradius 15.7979
rwrist 17.8693
rhand -19.4728 35.1119
rfingers 7.12502
rthumb 6.8488 5.24264
lclavicle 5.17958e-014 1.49089e-014
lhumerus -18.6032 9.71105 82.2314
lradius 30.9668
lwrist 3.03159
lhand -13.9242 44.5434
lfingers 7.12502
lthumb 12.2022 74.1675
rfemur -29.2293 -1.61843 23.1458
rtibia 37.9625
rfoot -12.5297 -3.56937
rtoes -1.14457
lfemur 1.88952 -0.398017 -25.0301
ltibia 44.2171
lfoot 9.49205 -13.6249
ltoes 52.184
386
root 1.02151 15.8747 1.25888 209.908 -85.7441 -205.718
lowerback -0.68504 -6.47926 -3.23016
upperback 0.475134 -8.60701 -0.0216651
thorax 1.33805 -4.32806 1.56829
lowerneck -3.4197 -7.59616 -6.12445
upperneck -14.1547 -10.6812 2.03304
head -3.58652 -5.32583 1.90575
rclavicle -1.63997e-015 -2.98177e-015
rhumerus -36.6214 -17.8411 -72.9354
rradius 16.7728
rwrist 14.2042
rhand -19.554 34.7695
rfingers 7.12502
rthumb 6.77036 4.89779
lclavicle -1.63997e-015 -2.98177e-015
lhumerus -18.8578 10.4578 82.0382
lradius 29.8433
lwrist 2.33901
lhand -13.8321 44.3459
lfingers 7.12502
lthumb 12.291 73.9647
rfemur -28.5066 -1.34833 23.4868
rtibia 37.9946
rfoot -12.9701 -3.71254
rtoes 0.222128
lfemur 0.658689 -0.58349 -24.3996
ltibia 46.5717
lfoot 10.8304 -14.3722
ltoes 51.2599
387
root 0.869778 15.8863 1.24849 206.066 -85.8925 -202.011
lowerback -0.531162 -6.4419 -2.87715
upperback 0.465286 -8.56652 0.1099
thorax 1.20874 -4.30399 1.53441
lowerneck -3.11853 -7.73951 -6.45632
upperneck -14.6042 -10.944 1.9764
head -3.78011 -5.43603 1.98087
rclavicle -1.05306e-013 6.95746e-016
rhumerus -36.2541 -15.9987 -73.9744
rradius 17.4566
rwrist 12.2306
rhand -19.6241 34.898
rfingers 7.12502
rthumb 6.70266 5.02407
lclavicle -1.05306e-013 6.95746e-016
lhumerus -19.2612 11.2547 81.9305
lradius 28.7601
lwrist 1.55563
lhand -13.8453 44.7291
lfingers 7.12502
lthumb 12.2782 74.3486
rfemur -27.648 -1.29595 23.7642
rtibia 37.8934
rfoot -13.5266 -3.76499
rtoes 1.08439
lfemur -0.542802 -0.714058 -23.9293
ltibia 48.9063
lfoot 11.4804 -14.8792
ltoes 49.8588
388
root 0.722243 15.8965 1.23846 202.564 -86.1123 -198.642
lowerback -0.511081 -6.37062 -2.50478
upperback 0.518457 -8.47523 0.202096
thorax 1.20784 -4.25647 1.43041
lowerneck -3.13395 -7.832 -6.67521
upperneck -14.276 -11.0201 2.08912
head -3.63763 -5.46671 2.03604
rclavicle -1.27446e-013 -7.15625e-015
rhumerus -35.9619 -15.7009 -74.2474
rradius 17.9249
rwrist 11.8261
rhand -19.4532 34.8727
rfingers 7.12502
rthumb 6.86769 5.00408
lclavicle -1.27446e-013 -7.15625e-015
lhumerus -19.4926 11.8769 81.856
lradius 27.6298
lwrist 0.644059
lhand -13.585 45.3104
lfingers 7.12502
lthumb 12.5292 74.9147
rfemur -26.7462 -1.40713 24.0693
rtibia 37.6967
rfoot -14.0549 -3.86132
rtoes 1.52541
lfemur -1.7671 -0.915873 -23.4677
ltibia 51.1949
lfoot 11.2628 -14.7143
ltoes 48.948
389
root 0.581921 15.9055 1.22541 197.647 -86.3294 -193.839
lowerback -0.460546 -6.30327 -2.11946
upperback 0.59478 -8.38995 0.266621
thorax 1.20882 -4.21191 1.29317
lowerneck -3.45231 -8.03418 -6.28654
upperneck -14.056 -11.3132 1.6418
head -3.5367 -5.61998 1.80105
rclavicle 7.61594e-015 2.08724e-015
rhumerus -35.8404 -13.6578 -75.5833
rradius 19.2942
rwrist 9.51912
rhand -19.321 33.9884
rfingers 7.12502
rthumb 6.99529 4.12395
lclavicle 7.61594e-015 2.08724e-015
lhumerus -19.6183 12.2575 81.6627
lradius 26.4105
lwrist -0.217515
lhand -13.3169 45.4609
lfingers 7.12502
lthumb 12.7877 75.0492
rfemur -25.8645 -1.40589 24.4555
rtibia 37.446
rfoot -14.427 -4.04371
rtoes 1.7464
lfemur -3.03867 -1.06638 -22.899
ltibia 53.4444
lfoot 10.0312 -14.1371
ltoes 48.2703
390
root 0.443409 15.9152 1.21087 190.911 -86.423 -187.289
lowerback -0.237986 -6.25243 -1.6985
upperback 0.665086 -8.33027 0.343728
thorax 1.10646 -4.17923 1.16983
lowerneck -2.45409 -8.00577 -6.55196
upperneck -14.9624 -11.3585 2.0311
head -4.00707 -5.62601 2.07325
rclavicle 1.2752e-013 -5.06901e-015
rhumerus -36.1034 -9.75708 -77.7605
rradius 21.5856
rwrist 5.4223
rhand -19.4421 32.8574
rfingers 7.12502
rthumb 6.8784 2.9891
lclavicle 1.2752e-013 -5.06901e-015
lhumerus -19.8287 12.7267 81.3329
lradius 25.1808
lwrist -1.01038
lhand -13.1976 45.2489
lfingers 7.12502
lthumb 12.9027 74.83
rfemur -24.8975 -1.26602 24.9083
rtibia 37.1508
rfoot -14.6909 -4.25452
rtoes 1.9786
lfemur -4.21695 -0.997218 -22.2407
ltibia 55.6285
lfoot 8.33807 -13.297
ltoes 47.7294
391
root 0.303359 15.9248 1.19749 182.315 -86.3033 -178.918
lowerback -0.0401306 -6.15212 -1.12095
upperback 0.798619 -8.20371 0.427716
thorax 1.06059 -4.11291 0.962846
lowerneck -2.55171 -8.11212 -6.50837
upperneck -14.9729 -11.5285 1.83298
head -4.00105 -5.70738 1.99781
rclavicle 3.49985e-014 3.77691e-015
rhumerus -35.009 -13.2974 -76.4083
rradius 20.2063
rwrist 9.38215
rhand -19.3394 34.0377
rfingers 7.12502
rthumb 6.97755 4.17274
lclavicle 3.49985e-014 3.77691e-015
lhumerus -19.9804 13.6076 80.9354
lradius 23.9387
lwrist -2.15367
lhand -13.0204 45.0604
lfingers 7.12502
lthumb 13.0735 74.6307
rfemur -23.8685 -1.07253 25.4783
rtibia 36.8332
rfoot -14.9508 -4.37938
rtoes 2.46928
lfemur -5.37003 -0.695317 -21.4695
ltibia 57.7212
lfoot 6.42692 -12.2321
ltoes 47.5325
